<?xml version="1.0" standalone="no"?>
<!DOCTYPE svg PUBLIC "-//W3C//DTD SVG 20010904//EN"
 "http://www.w3.org/TR/2001/REC-SVG-20010904/DTD/svg10.dtd">
<svg version="1.0" xmlns="http://www.w3.org/2000/svg"
 width="64.000000pt" height="64.000000pt" viewBox="0 0 64.000000 64.000000"
 preserveAspectRatio="xMidYMid meet">
<metadata>
Created by potrace 1.10, written by Peter Selinger 2001-2011
</metadata>
<g transform="translate(0.000000,64.000000) scale(0.100000,-0.100000)"
fill="#000000" stroke="none">
<path d="M204 618 c-95 -31 -194 -160 -194 -251 l1 -42 43 83 c57 108 73 124
173 172 46 22 83 43 83 45 0 9 -74 3 -106 -7z"/>
<path d="M330 625 c0 -3 33 -20 73 -39 101 -46 131 -75 180 -175 42 -86 42
-86 45 -48 4 43 -30 124 -72 174 -35 42 -138 93 -188 93 -21 0 -38 -2 -38 -5z"/>
<path d="M289 564 c-23 -22 -28 -24 -52 -13 -23 10 -30 9 -48 -7 -12 -10 -25
-29 -30 -41 -5 -13 -15 -23 -22 -23 -7 0 -24 -11 -37 -25 -21 -22 -22 -27 -10
-50 12 -22 11 -28 -8 -48 -28 -29 -28 -51 0 -76 19 -19 20 -23 8 -46 -12 -23
-11 -28 10 -50 13 -14 30 -25 37 -25 7 0 17 -10 22 -23 5 -12 18 -31 30 -41
19 -17 24 -18 46 -6 23 12 28 11 56 -16 l30 -29 30 33 c17 19 29 44 29 60 0
26 2 27 39 24 72 -7 153 54 167 127 20 100 -77 203 -177 189 -26 -4 -29 -2
-29 23 0 25 -42 89 -59 89 -3 0 -18 -12 -32 -26z m51 -49 c0 -28 -4 -35 -20
-35 -16 0 -20 7 -20 35 0 28 4 35 20 35 16 0 20 -7 20 -35z m-100 -16 c12 -22
7 -49 -9 -49 -13 0 -42 55 -34 64 13 12 33 6 43 -15z m-53 -92 c-6 -18 -30
-19 -51 -4 -12 9 -17 20 -13 31 6 15 9 15 37 1 17 -9 29 -22 27 -28z m309 13
c52 -32 69 -107 37 -161 -27 -45 -65 -58 -171 -55 -90 2 -94 3 -125 34 -27 28
-32 40 -32 81 0 52 27 94 70 111 32 13 197 5 221 -10z m-336 -100 c0 -16 -7
-20 -35 -20 -28 0 -35 4 -35 20 0 16 7 20 35 20 28 0 35 -4 35 -20z m27 -87
c2 -6 -10 -19 -27 -28 -28 -14 -31 -14 -37 1 -4 11 1 22 13 31 21 15 45 14 51
-4z m61 -64 c4 -23 -23 -53 -42 -46 -15 6 -15 9 -1 37 16 31 38 36 43 9z m92
-44 c0 -28 -4 -35 -20 -35 -16 0 -20 7 -20 35 0 28 4 35 20 35 16 0 20 -7 20
-35z"/>
<path d="M265 375 c-16 -15 -25 -36 -25 -55 0 -38 39 -80 74 -80 l24 0 -15 40
c-15 36 -15 44 0 80 l15 40 -24 0 c-14 0 -36 -11 -49 -25z"/>
<path d="M389 390 c-29 -17 -43 -66 -29 -100 22 -53 77 -66 124 -29 56 44 20
140 -53 139 -14 0 -33 -5 -42 -10z m62 -40 c22 -13 25 -43 5 -59 -33 -28 -74
27 -44 57 15 15 15 15 39 2z"/>
<path d="M11 274 c-1 -52 48 -153 92 -190 49 -42 131 -76 173 -72 37 3 36 3
-50 46 -97 49 -128 81 -181 188 l-34 69 0 -41z"/>
<path d="M583 229 c-49 -100 -77 -127 -183 -178 l-75 -36 38 -3 c43 -4 124 30
174 72 46 39 95 143 91 192 l-3 39 -42 -86z"/>
</g>
</svg>
